# xmcd CD database file generated by OrangeCD 4.3
#
# Track frame offsets:
#	150
#	18760
#	37212
#	49820
#	63608
#	79648
#	95988
#	114915
#	133062
#	153160
#	171858
#	185671
#	197570
#
# Disc length: 2972 seconds
#
# Revision: 0
# Processed by: cddbd v1.4PL0 Copyright (c) Steve Scherf et al.
# Submitted via: OrangeCD 4.3
#
DISCID=b00b9a0d
DTITLE=EastSide Most Wanted - Volume 4
DYEAR=2001
DGENRE=Blues
TTITLE0=Haters
TTITLE1=El Corrido
TTITLE2=Just Like Mexico
TTITLE3=Fuck The Haters
TTITLE4=No Te Escondaz
TTITLE5=See Me Die
TTITLE6=Living Militant
TTITLE7=When We Ride
TTITLE8=Badness Is Madness
TTITLE9=Hard 2 Kill
TTITLE10=Voice
TTITLE11=Reflekxion
TTITLE12=Going Solo
EXTD=
EXTT0=
EXTT1=
EXTT2=
EXTT3=
EXTT4=
EXTT5=
EXTT6=
EXTT7=
EXTT8=
EXTT9=
EXTT10=
EXTT11=
EXTT12=
PLAYORDER=
